<svg height='100px' width='100px'  fill="#666666" xmlns="http://www.w3.org/2000/svg" xmlns:xlink="http://www.w3.org/1999/xlink" version="1.1" x="0px" y="0px" viewBox="0 0 512 512" style="enable-background:new 0 0 512 512;" xml:space="preserve"><g><path d="M351.0019531,103H160.9975586c-20.0844727,0-36.4248047,16.340332-36.4248047,36.4248047v233.1503906   C124.5727539,392.659668,140.9130859,409,160.9975586,409h190.0043945c20.0849609,0,36.4248047-16.340332,36.4248047-36.4248047   V139.4248047C387.4267578,119.340332,371.0869141,103,351.0019531,103z M373.4267578,372.5751953   C373.4267578,384.9404297,363.3671875,395,351.0019531,395H160.9975586c-12.3652344,0-22.4248047-10.0595703-22.4248047-22.4248047   V139.4248047C138.5727539,127.0595703,148.6323242,117,160.9975586,117h190.0043945   c12.3652344,0,22.4248047,10.0595703,22.4248047,22.4248047V372.5751953z"></path><path d="M466.9326172,10.0131836l-88.9609375,0.2050781l0.0654297,28.1977539   c0.0195312,8.3852539-3.2558594,16.3046875-9.2226562,22.2988281c-5.9667969,5.9946289-13.8710938,9.3061523-22.2568359,9.3256836   l-181.7490234,0.4189453c-0.0253906,0-0.0483398,0-0.0737305,0c-17.362793,0-31.5107422-14.1069336-31.5507812-31.4790039   l-0.0649414-28.1977539l-89.1845703,0.2055664l1.1318359,490.9985352l87.6884766-0.2021484l-0.0664062-28.699707   c-0.0400391-17.3979492,14.081543-31.5844727,31.4790039-31.6245117l181.7495117-0.4189453c0.0253906,0,0.0488281,0,0.0742188,0   c8.3574219,0,16.2480469,3.2739258,22.2246094,9.2231445c5.9951172,5.9667969,9.3066406,13.8706055,9.3261719,22.2558594   l0.0654297,28.699707l90.4570312-0.2084961L466.9326172,10.0131836z M391.5761719,487.1879883l-0.0341797-14.699707   c-0.0283203-12.1245117-4.8046875-23.5410156-13.4492188-32.1459961   c-8.6191406-8.5800781-20.015625-13.3007812-32.1005859-13.3007812c-0.0351562,0-0.0712891,0-0.1074219,0l-181.7495117,0.4189453   C139.0180664,427.5180664,118.6308594,448,118.6884766,473.1171875l0.0341797,14.699707l-59.6884766,0.1376953   L57.9667969,24.9560547l61.1845703-0.1411133l0.0327148,14.1977539c0.027832,12.125,4.8041992,23.5410156,13.4487305,32.1459961   c8.6196289,8.5800781,20.0161133,13.3007812,32.1010742,13.3007812c0.0356445,0,0.0712891,0,0.1069336,0l181.7490234-0.4189453   c12.125-0.027832,23.5419922-4.8041992,32.1464844-13.4492188c8.6054688-8.6445312,13.3291016-20.0825195,13.3007812-32.2075195   l-0.0332031-14.1977539l60.9619141-0.140625l1.0664062,462.9985352L391.5761719,487.1879883z"></path></g></svg>